<svg width="624" height="70" xmlns="http://www.w3.org/2000/svg" xmlns:xlink="http://www.w3.org/1999/xlink" overflow="hidden"><defs><clipPath id="clip0"><rect x="0" y="0" width="624" height="70"/></clipPath></defs><g clip-path="url(#clip0)"><path d="M102.68-46.6726 102.68-28.0036 121.349-28.0036 121.349-46.6726ZM224.028-65.3416 289.37-65.3416 289.37-56.0071 252.032-56.0071 252.032-37.3381 280.036-37.3381 280.036-28.0036 252.032-28.0036 252.032-9.33452 289.37-9.33452 289.37 0 224.028 0ZM149.352-65.3416 168.021-65.3416 168.021-56.0071 177.356-56.0071 177.356-46.6726 186.69-46.6726 186.69-56.0071 196.025-56.0071 196.025-65.3416 214.694-65.3416 214.694 0 196.025 0 196.025-28.0036 186.69-28.0036 186.69-18.669 177.356-18.669 177.356-28.0036 168.021-28.0036 168.021 0 149.352 0ZM93.3452-65.3416 121.349-65.3416 121.349-56.0071 130.683-56.0071 130.683-46.6726 140.018-46.6726 140.018 0 121.349 0 121.349-18.669 102.68-18.669 102.68 0 74.6762 0 74.6762-46.6726 84.0107-46.6726 84.0107-56.0071 93.3452-56.0071ZM18.669-65.3416 56.0071-65.3416 56.0071-56.0071 28.0036-56.0071 28.0036-9.33452 46.6726-9.33452 46.6726-28.0036 37.3381-28.0036 37.3381-37.3381 65.3416-37.3381 65.3416 0 18.669 0 18.669-9.33452 9.33452-9.33452 9.33452-18.669 4.31195e-06-18.669 4.31195e-06-46.6726 9.33452-46.6726 9.33452-56.0071 18.669-56.0071Z" stroke="#000000" stroke-width="3.97917" fill-rule="evenodd" transform="matrix(1.00306 0 0 1 1.99567 67.8497)"/><text fill="#000000" fill-opacity="0" font-family="Arial,Arial_MSFontService,sans-serif" font-size="65.3416" x="4.31195e-06" y="-8.1677">game </text><path d="M252.032-56.0071 252.032-28.0036 261.367-28.0036 261.367-37.3381 270.701-37.3381 270.701-56.0071ZM28.0036-56.0071 28.0036-9.33452 46.6726-9.33452 46.6726-56.0071ZM224.028-65.3416 280.036-65.3416 280.036-56.0071 289.37-56.0071 289.37-37.3381 280.036-37.3381 280.036-28.0036 270.701-28.0036 270.701-18.669 280.036-18.669 280.036-9.33452 289.37-9.33452 289.37 0 270.701 0 270.701-9.33452 261.367-9.33452 261.367-18.669 252.032-18.669 252.032 0 224.028 0ZM149.352-65.3416 214.694-65.3416 214.694-56.0071 177.356-56.0071 177.356-37.3381 205.359-37.3381 205.359-28.0036 177.356-28.0036 177.356-9.33452 214.694-9.33452 214.694 0 149.352 0ZM74.6762-65.3416 102.68-65.3416 102.68-18.669 112.014-18.669 112.014-28.0036 121.349-28.0036 121.349-65.3416 140.018-65.3416 140.018-28.0036 130.683-28.0036 130.683-18.669 121.349-18.669 121.349-9.33452 112.014-9.33452 112.014 0 102.68 0 102.68-9.33452 93.3452-9.33452 93.3452-18.669 84.0107-18.669 84.0107-28.0036 74.6762-28.0036ZM9.33452-65.3416 56.0071-65.3416 56.0071-56.0071 65.3416-56.0071 65.3416-9.33452 56.0071-9.33452 56.0071 0 9.33452 0 9.33452-9.33452 4.31195e-06-9.33452 4.31195e-06-56.0071 9.33452-56.0071Z" stroke="#000000" stroke-width="3.97917" fill-rule="evenodd" transform="matrix(1.00306 0 0 1 329.389 67.8497)"/><text fill="#000000" fill-opacity="0" font-family="Arial,Arial_MSFontService,sans-serif" font-size="65.3416" x="4.31195e-06" y="-8.1677">over</text></g></svg>