<svg width="624" height="224" xmlns="http://www.w3.org/2000/svg" xmlns:xlink="http://www.w3.org/1999/xlink" overflow="hidden"><defs><clipPath id="clip0"><rect x="0" y="0" width="624" height="224"/></clipPath></defs><g clip-path="url(#clip0)"><path d="M50.7591-81.0453 43.822-63.7872 69.7091-63.1104 63.7872-80.5377ZM75.9694-125.375 129.436-8.79824 78.3382-0.676788 74.2775-30.6246 33.1626-31.6398 23.8568 0.338394-25.3795-8.45985 42.13-121.991Z" stroke="#000000" stroke-width="5.95382" fill="#34B800" fill-rule="evenodd" transform="matrix(1.00055 0 0 1 198.348 128.999)"/><text fill="#000000" fill-opacity="0" font-family="Arial,Arial_MSFontService,sans-serif" font-size="125.713" x="-25.3795" y="-15.3758">a</text><path d="M160.568-125.544 195.253-3.89153 150.078-0.169196 141.449-30.963 131.128-60.7417 99.9954-32.9934 76.1386-64.6332 47.5443-3.89153 2.9095e-06-12.859 60.4033-124.698 96.1039-124.698 107.948-90.8587 128.928-124.867Z" stroke="#000000" stroke-width="5.95382" fill="#FF0003" fill-rule="evenodd" transform="matrix(1.00055 0 0 1 2.97855 129.844)"/><text fill="#000000" fill-opacity="0" font-family="Arial,Arial_MSFontService,sans-serif" font-size="125.375" x="2.9095e-06" y="-15.8411">M</text><path d="M42.976-90.0128 41.9608-65.9868 52.2819-64.6332 62.6029-79.5226ZM70.2167-125.037 101.518-102.195 104.395-62.7721 86.798-43.1452 118.099-15.5661 81.3837 0.338395 42.976-32.4858 48.7287 0.169196 9.81342 0.169196 1.75982e-06-119.622Z" stroke="#000000" stroke-width="5.95382" fill="#FFCC00" fill-rule="evenodd" transform="matrix(1.00055 0 0 1 317.297 128.662)"/><text fill="#000000" fill-opacity="0" font-family="Arial,Arial_MSFontService,sans-serif" font-size="125.375" x="1.75982e-06" y="-15.3335">R</text><path d="M33.6702-127.067 59.0497-7.27547 5.24511-1.35358 0.845985-125.037Z" stroke="#000000" stroke-width="5.95382" fill="#00BCFF" fill-rule="evenodd" transform="matrix(1.00055 0 0 1 434.628 130.52)"/><text fill="#000000" fill-opacity="0" font-family="Arial,Arial_MSFontService,sans-serif" font-size="125.713" x="0.845985" y="-17.0677">i</text><path d="M52.2819-81.3837 43.6528-62.0953 58.5421-52.1126 74.2775-57.8653 73.4315-76.6462ZM42.2992-125.544 88.3208-124.021 125.206-78.169 114.716-17.7657 47.8827-0.338393-5.4143-47.3751 2.53796-100.334Z" stroke="#000000" stroke-width="5.95382" fill="#34B800" fill-rule="evenodd" transform="matrix(1.00055 0 0 1 496.023 128.324)"/><text fill="#000000" fill-opacity="0" font-family="Arial,Arial_MSFontService,sans-serif" font-size="125.206" x="-5.4143" y="-15.9891">o</text><path d="M24.4697-83.13 73.5209-80.8953 73.5209-58.9955 51.2858-56.8725 59.5541-18.1009 48.0455-3.57548 26.2574 0 2.01121 0 2.79335-24.5814 29.386-26.4809 26.3692-56.8725 1.09555e-06-58.9955 1.09555e-06-82.5713Z" stroke="#000000" stroke-width="5.95382" fill="#00BCFF" fill-rule="evenodd" transform="matrix(1.00055 0 0 1 131.433 218.912)"/><text fill="#000000" fill-opacity="0" font-family="Arial,Arial_MSFontService,sans-serif" font-size="83.13" x="1.09555e-06" y="-10.3912">J</text><path d="M-1.0056-82.5713 35.0844-82.5713 33.4084-26.1457 47.3751-36.2018 43.241-76.5377 77.5433-76.5377 77.5433-22.235 57.5429 0.335202 15.4193 0.335202-1.0056-19.7769Z" stroke="#000000" stroke-width="5.95382" fill="#FFCC00" fill-rule="evenodd" transform="matrix(1.00055 0 0 1 211.641 220.683)"/><text fill="#000000" fill-opacity="0" font-family="Arial,Arial_MSFontService,sans-serif" font-size="82.9065" x="-1.0056" y="-10.0281">u</text><path d="M106.035-82.9065 128.941-2.56988 99.1079-0.111733 93.4095-20.4473 86.5937-40.1124 66.0347-21.7881 50.2802-42.6823 31.3972-2.56988 1.92137e-06-8.49177 39.889-82.3478 63.4648-82.3478 71.2862-60.0011 85.1412-82.4596Z" stroke="#000000" stroke-width="5.95382" fill="#FF0003" fill-rule="evenodd" transform="matrix(1.00055 0 0 1 288.816 221.279)"/><text fill="#000000" fill-opacity="0" font-family="Arial,Arial_MSFontService,sans-serif" font-size="82.7948" x="1.92137e-06" y="-10.4611">m</text><path d="M30.6151-57.2077 29.8329-43.6879 37.2074-42.6823 46.593-53.744ZM4.13415-82.683 49.3863-82.683 69.0515-69.1632 70.6158-36.09 50.7272-16.8718 26.034-15.3075 26.034 0.446935 1.05226e-06 0.446935Z" stroke="#000000" stroke-width="5.95382" fill="#34B800" fill-rule="evenodd" transform="matrix(1.00055 0 0 1 422.402 220.598)"/><text fill="#000000" fill-opacity="0" font-family="Arial,Arial_MSFontService,sans-serif" font-size="83.13" x="1.05226e-06" y="-9.94431">p</text></g></svg>